<svg xmlns="http://www.w3.org/2000/svg" width="64" height="64" viewBox="0 0 64 64">
  <!-- CTC chain icon — the official Creditcoin token symbol (white "C",
       exactly as shipped by @web3icons/react TokenCTC) on the dark chip used
       app-wide for Creditcoin chains (N14: the pack has no CTC *network*
       icon, so the token's logo stands in, per the owner's instruction). -->
  <rect width="64" height="64" rx="8" fill="#17181a"/>
  <g transform="translate(20 20) scale(1)">
    <path fill="#fff" d="m19.2 8.647-2.02.62a6.14 6.14 0 0 0-5.72-3.45c-4.342 0-6.21 3.708-6.21 6.183 0 1.952 1.384 6.193 6.188 6.193 3.594 0 5.501-2.886 5.743-3.398l2.132.507c-.197.77-2.616 5.13-7.853 5.13C6.791 20.432 3 16.658 3 12s3.791-8.432 8.46-8.432c4.675 0 7.279 3.6 7.74 5.08"/>
    <path fill="#fff" d="M12.5 10.88H21v2.25h-8.5z"/>
    <path fill="#fff" d="M11.437 13.693a1.688 1.688 0 1 0 0-3.375 1.688 1.688 0 0 0 0 3.375"/>
  </g>
</svg>
